<?xml version="1.0" encoding="utf-8"?>
<!-- Generator: Adobe Illustrator 22.0.1, SVG Export Plug-In . SVG Version: 6.00 Build 0)  -->
<svg version="1.1" xmlns="http://www.w3.org/2000/svg" xmlns:xlink="http://www.w3.org/1999/xlink" x="0px" y="0px"
	 viewBox="0 0 1143 1000" style="enable-background:new 0 0 1143 1000;" xml:space="preserve">
<style type="text/css">
	.st0{display:none;}
	.st1{display:inline;fill:#FFFFFF;}
	.st2{opacity:0.15;fill:#1D1D1B;}
	.st3{fill:none;stroke:#1D1D1B;stroke-width:2.5692;stroke-linecap:round;stroke-linejoin:round;stroke-miterlimit:10;}
	.st4{fill:none;stroke:#1D1D1B;stroke-linecap:round;stroke-linejoin:round;stroke-miterlimit:10;}
	.st5{fill:none;stroke:#1D1D1B;stroke-width:6;stroke-linecap:round;stroke-linejoin:round;stroke-miterlimit:10;}
	.st6{opacity:0.77;}
	.st7{fill:#FFFFFF;}
	.st8{opacity:4.000000e-02;fill:#231F20;}
	.st9{opacity:4.000000e-02;}
	.st10{fill:#231F20;}
	.st11{opacity:0.15;fill:#231F20;}
	.st12{fill:none;stroke:#231F20;stroke-linecap:round;stroke-linejoin:round;stroke-miterlimit:10;}
	.st13{opacity:8.000000e-02;fill:#231F20;}
	.st14{opacity:0.11;fill:none;stroke:#231F20;stroke-linecap:round;stroke-linejoin:round;stroke-miterlimit:10;}
	.st15{opacity:0.15;fill:none;stroke:#231F20;stroke-linecap:round;stroke-linejoin:round;stroke-miterlimit:10;}
	.st16{opacity:0.1;fill:none;stroke:#231F20;stroke-linecap:round;stroke-linejoin:round;stroke-miterlimit:10;}
	.st17{opacity:8.000000e-02;fill:none;stroke:#231F20;stroke-linecap:round;stroke-linejoin:round;stroke-miterlimit:10;}
	.st18{fill:none;stroke:#231F20;stroke-width:5;stroke-linecap:round;stroke-linejoin:round;stroke-miterlimit:10;}
</style>
<g id="Bg" class="st0">
	<rect class="st1" width="1143.1" height="1000"/>
</g>
<g id="Layer_3">
	<polygon class="st2" points="747.3,300.9 139.3,651.9 489.6,854.1 1090.7,507.2 	"/>
	<path class="st3" d="M413.9,912.7c-17.9,10.4-45.1,11.5-60.6,2.5L36.8,732.5c-15.5-9-13.6-24.6,4.4-35l693-400.1
		c17.9-10.4,45.1-11.5,60.6-2.5l316.5,182.7c15.5,9,13.6,24.6-4.4,35L413.9,912.7z"/>
	<path class="st4" d="M1121.7,494.2c-0.6,6.5-5.6,13.1-14.8,18.4l-693,400.1c-17.9,10.4-45.1,11.5-60.6,2.5L36.8,732.5
		c-7.1-4.1-10.5-9.5-10.5-15.2v39.3c0,5.7,3.4,11.2,10.5,15.2l316.5,182.7c15.5,9,42.7,7.8,60.6-2.5l693-400.1
		c9.2-5.3,14.2-12,14.8-18.4V494.2z"/>
	<path class="st3" d="M1121.7,494.2c-0.6,6.5-5.6,13.1-14.8,18.4l-693,400.1c-17.9,10.4-45.1,11.5-60.6,2.5L36.8,732.5
		c-7.1-4.1-10.5-9.5-10.5-15.2v39.3c0,5.7,3.4,11.2,10.5,15.2l316.5,182.7c15.5,9,42.7,7.8,60.6-2.5l693-400.1
		c9.2-5.3,14.2-12,14.8-18.4V494.2z"/>
	<polygon class="st4" points="747.3,300.9 139.3,651.9 489.6,854.1 1090.7,507.2 	"/>
	<polygon class="st4" points="288,796.5 292,763.6 235.1,766 248.7,773.9 219.6,790.7 245.2,805.5 274.3,788.7 	"/>
	<path class="st5" d="M1111.2,477.6L794.8,294.9c-15.5-9-42.7-7.8-60.6,2.5l-693,400.1c-10,5.8-15,13.1-14.8,20.1c0-0.1,0-0.2,0-0.4
		v39.3c0,5.7,3.4,11.2,10.5,15.2l316.5,182.7c15.5,9,42.7,7.8,60.6-2.5l693-400.1c9.2-5.3,14.2-12,14.8-18.4v-39.3
		c0,0.1,0,0.1,0,0.2C1122.3,488.1,1118.9,482.1,1111.2,477.6z M26.4,718.1c0,0.2,0,0.5,0.1,0.7C26.4,718.6,26.4,718.3,26.4,718.1z
		 M26.5,719.2c0,0.2,0.1,0.5,0.1,0.7C26.6,719.7,26.5,719.5,26.5,719.2z M26.7,720.3c0.1,0.3,0.1,0.5,0.2,0.7
		C26.8,720.8,26.7,720.6,26.7,720.3z M27,721.4c0.1,0.3,0.2,0.7,0.4,1C27.2,722.1,27.1,721.8,27,721.4z M27.4,722.5
		c0.1,0.4,0.3,0.7,0.5,1.1C27.7,723.2,27.5,722.9,27.4,722.5z M28,723.9c0.1,0.2,0.2,0.5,0.4,0.7C28.3,724.4,28.1,724.2,28,723.9z
		 M28.7,725c0.1,0.2,0.3,0.4,0.4,0.6C28.9,725.5,28.8,725.3,28.7,725z M29.4,726.1c0.1,0.2,0.3,0.4,0.4,0.6
		C29.7,726.5,29.5,726.3,29.4,726.1z M30.2,727.1c0.2,0.2,0.3,0.4,0.5,0.5C30.5,727.5,30.3,727.3,30.2,727.1z M31.1,728.1
		c0.2,0.2,0.4,0.4,0.5,0.5C31.4,728.4,31.2,728.3,31.1,728.1z M32.6,729.6c-0.2-0.2-0.4-0.3-0.6-0.5
		C32.2,729.2,32.4,729.4,32.6,729.6z M35.5,731.7c0.4,0.3,0.9,0.6,1.3,0.8C36.4,732.3,35.9,732,35.5,731.7z M33.1,730
		c0.2,0.2,0.4,0.4,0.7,0.5C33.5,730.3,33.3,730.1,33.1,730z M34.3,730.8c0.3,0.2,0.5,0.4,0.8,0.6C34.8,731.2,34.5,731,34.3,730.8z
		 M1110.6,510.3c-0.2,0.1-0.3,0.2-0.5,0.3C1110.3,510.5,1110.4,510.4,1110.6,510.3z M1108.9,511.4c-0.1,0.1-0.3,0.2-0.4,0.3
		C1108.7,511.6,1108.8,511.5,1108.9,511.4z M1111.6,509.6c0.2-0.1,0.3-0.3,0.5-0.4C1111.9,509.3,1111.7,509.4,1111.6,509.6z
		 M1112.9,508.5c0.2-0.1,0.3-0.3,0.5-0.4C1113.2,508.2,1113.1,508.3,1112.9,508.5z M1114.2,507.4c0.2-0.1,0.3-0.3,0.5-0.4
		C1114.5,507.1,1114.4,507.2,1114.2,507.4z M1115.4,506.2c0.1-0.1,0.3-0.3,0.4-0.5C1115.7,505.9,1115.5,506.1,1115.4,506.2z
		 M1116.8,504.6c-0.1,0.2-0.3,0.3-0.4,0.5C1116.6,504.9,1116.7,504.8,1116.8,504.6z M1121.5,495.6c0-0.2,0.1-0.3,0.1-0.5
		C1121.5,495.3,1121.5,495.4,1121.5,495.6z M1117.4,503.9c0.1-0.2,0.2-0.3,0.4-0.5C1117.7,503.6,1117.5,503.8,1117.4,503.9z
		 M1118.3,502.8c0.1-0.2,0.2-0.3,0.3-0.5C1118.5,502.5,1118.4,502.6,1118.3,502.8z M1119.1,501.6c0.1-0.2,0.2-0.3,0.3-0.5
		C1119.3,501.3,1119.2,501.4,1119.1,501.6z M1119.7,500.4c0.1-0.2,0.2-0.3,0.2-0.5C1119.9,500.1,1119.8,500.2,1119.7,500.4z
		 M1120.3,499.2c0.1-0.2,0.1-0.3,0.2-0.5C1120.5,498.9,1120.4,499,1120.3,499.2z M1120.8,498c0.1-0.2,0.1-0.3,0.2-0.5
		C1120.9,497.7,1120.9,497.8,1120.8,498z M1121.2,496.8c0-0.2,0.1-0.3,0.1-0.5C1121.3,496.5,1121.2,496.6,1121.2,496.8z"/>
</g>
<g id="Layer_7">
	<g class="st6">
		<path class="st7" d="M557.4,677.2c-1.3,0.7-1.1,2,0.4,2.8c1.5,0.8,3.6,0.9,4.9,0.2c1.3-0.7,1.1-2-0.4-2.8
			C560.9,676.6,558.7,676.5,557.4,677.2z"/>
		<path class="st7" d="M415.8,587.8c2.6,1.5,6.6,1.7,8.8,0.4s2-3.6-0.6-5.1s-6.6-1.7-8.8-0.4C412.9,584,413.2,586.3,415.8,587.8z"/>
		<path class="st7" d="M440.2,604.1c-2.2-1.3-5.6-1.4-7.6-0.3c-1.9,1.1-1.7,3.1,0.5,4.4c2.2,1.3,5.6,1.4,7.6,0.3
			C442.7,607.4,442.4,605.4,440.2,604.1z"/>
		
			<ellipse transform="matrix(0.121 -0.9927 0.9927 0.121 -243.1199 945.5248)" class="st7" cx="412.3" cy="610" rx="11.7" ry="20.7"/>
		<path class="st7" d="M442.9,619.5c-4.3-2.5-10.8-2.7-14.5-0.6c-3.7,2.1-3.2,5.9,1,8.4c4.3,2.5,10.8,2.7,14.5,0.6
			C447.7,625.7,447.2,621.9,442.9,619.5z"/>
		<path class="st7" d="M462.3,631.3c-2.8,1.6-2.4,4.4,0.8,6.2c3.2,1.8,8,2,10.8,0.4c0.1-0.1,0.3-0.2,0.4-0.3c-1.8,2.2-0.9,5,2.6,7.1
			c4.3,2.5,10.7,2.7,14.5,0.6c-3.7,2.1-3.2,5.9,1.1,8.3c4.3,2.5,10.8,2.7,14.5,0.6c3.7-2.1,3.2-5.9-1-8.4
			c-4.3-2.5-10.7-2.7-14.5-0.6c3.7-2.1,3.2-5.9-1.1-8.3c-4.3-2.5-10.8-2.7-14.5-0.6c-0.3,0.1-0.5,0.3-0.7,0.5
			c1.2-1.6,0.5-3.7-2.1-5.2C469.9,629.9,465.1,629.7,462.3,631.3z"/>
		<path class="st7" d="M473.9,630c1.3-0.7,1.1-2-0.4-2.8c-1.5-0.8-3.6-0.9-4.9-0.2c-1.3,0.7-1.1,2,0.4,2.8
			C470.5,630.6,472.7,630.7,473.9,630z"/>
		<path class="st7" d="M463.6,621.7c-4.3-2.5-10.8-2.7-14.5-0.6c-3.7,2.1-3.2,5.9,1,8.4c4.3,2.5,10.8,2.7,14.5,0.6
			C468.4,627.9,467.9,624.1,463.6,621.7z"/>
		<path class="st7" d="M386.7,604.9c-4.9-2.8-12.3-3.1-16.6-0.7c-4.3,2.5-3.7,6.7,1.2,9.6c4.9,2.8,12.3,3.1,16.6,0.7
			C392.1,612,391.6,607.8,386.7,604.9z"/>
		<path class="st7" d="M411.5,591.7c-2.8-1.6-7-1.8-9.3-0.4c-2.4,1.4-2.1,3.8,0.7,5.4c2.8,1.6,7,1.8,9.3,0.4
			S414.2,593.3,411.5,591.7z"/>
		<path class="st7" d="M427.3,638.6c-2.1-1.2-5.2-1.3-7-0.3c-1.8,1-1.6,2.8,0.5,4c2.1,1.2,5.2,1.3,7,0.3
			C429.6,641.6,429.4,639.8,427.3,638.6z"/>
		<path class="st7" d="M453.7,615.9c-1.7-1-4.3-1.1-5.8-0.2c-1.5,0.9-1.3,2.4,0.4,3.4c1.7,1,4.3,1.1,5.8,0.2
			C455.6,618.4,455.4,616.9,453.7,615.9z"/>
		<path class="st7" d="M449.2,649.9c-2.4-1.4-6.1-1.6-8.3-0.3c-2.1,1.2-1.9,3.4,0.6,4.8c2.4,1.4,6.1,1.6,8.3,0.3
			C451.9,653.4,451.6,651.3,449.2,649.9z"/>
		<path class="st7" d="M396.5,616.4c-3.3-1.9-8.3-2.1-11.2-0.5c-2.9,1.7-2.5,4.5,0.8,6.5c3.3,1.9,8.3,2.1,11.2,0.5
			C400.2,621.2,399.8,618.3,396.5,616.4z"/>
		<path class="st7" d="M445.3,610.9c-3.1-1.8-7.9-2-10.6-0.4c-2.7,1.6-2.4,4.3,0.8,6.1c3.1,1.8,7.9,2,10.6,0.4
			C448.7,615.5,448.4,612.7,445.3,610.9z"/>
		<path class="st7" d="M391.7,597.2c2.9-1.6,2.5-4.5-0.8-6.4c-3.3-1.9-8.3-2.1-11.1-0.5c-2.9,1.6-2.5,4.5,0.8,6.4
			C383.8,598.6,388.8,598.8,391.7,597.2z"/>
		<path class="st7" d="M458.6,646.4c6.2-3.6,5.4-9.8-1.7-13.9s-17.9-4.6-24-1s-5.4,9.8,1.7,13.9
			C441.7,649.5,452.5,649.9,458.6,646.4z"/>
		<path class="st7" d="M485.7,648.7c-8.6-5-21.6-5.5-29.1-1.2c-7.5,4.3-6.5,11.8,2.1,16.8s21.6,5.5,29.1,1.2
			C495.2,661.2,494.3,653.7,485.7,648.7z"/>
		<path class="st7" d="M524.2,690.2c8.6,5,21.6,5.5,29.1,1.2c7.5-4.3,6.5-11.8-2.1-16.8c-8.6-5-21.6-5.5-29.1-1.2
			C514.7,677.7,515.6,685.3,524.2,690.2z"/>
		<path class="st7" d="M598.5,704.2c-3.2-1.8-8-2-10.8-0.4s-2.4,4.4,0.8,6.2c3.2,1.8,8,2,10.8,0.4
			C602.1,708.8,601.7,706,598.5,704.2z"/>
		<path class="st7" d="M599.3,702.4c1.3-0.7,1.1-2-0.4-2.8c-1.5-0.8-3.6-0.9-4.9-0.2c-1.3,0.7-1.1,2,0.4,2.8
			C595.9,703,598.1,703.1,599.3,702.4z"/>
		<path class="st7" d="M510.4,655.7c1.9,1.1,4.9,1.2,6.5,0.3c1.7-1,1.5-2.7-0.5-3.8c-1.9-1.1-4.9-1.2-6.5-0.3
			C508.3,652.8,508.5,654.5,510.4,655.7z"/>
		<path class="st7" d="M589,694.1c-4.3-2.5-10.8-2.7-14.5-0.6c-3.7,2.1-3.2,5.9,1,8.4c4.3,2.5,10.8,2.7,14.5,0.6
			C593.8,700.3,593.3,696.5,589,694.1z"/>
		<path class="st7" d="M537.5,669.5c2.4-1.4,2.1-3.8-0.7-5.4c-2.8-1.6-7-1.8-9.3-0.4c-2.4,1.4-2.1,3.8,0.7,5.4
			C530.9,670.7,535.1,670.8,537.5,669.5z"/>
		<path class="st7" d="M552.7,711c-2.1-1.2-5.2-1.3-7-0.3c-1.8,1-1.6,2.8,0.5,4c2.1,1.2,5.2,1.3,7,0.3
			C555,714,554.8,712.2,552.7,711z"/>
		<path class="st7" d="M573.2,688.1c-1.5,0.9-1.3,2.4,0.4,3.4c1.7,1,4.3,1.1,5.8,0.2s1.3-2.4-0.4-3.4
			C577.3,687.3,574.7,687.2,573.2,688.1z"/>
		<path class="st7" d="M547.5,666.6c-2-1.2-5-1.3-6.7-0.3c-1.7,1-1.5,2.7,0.5,3.9c2,1.2,5,1.3,6.7,0.3
			C549.7,669.5,549.5,667.8,547.5,666.6z"/>
		<path class="st7" d="M521.9,688.8c-3.3-1.9-8.3-2.1-11.2-0.5c-2.9,1.7-2.5,4.5,0.8,6.5c3.3,1.9,8.3,2.1,11.2,0.5
			C525.6,693.6,525.2,690.7,521.9,688.8z"/>
		<path class="st7" d="M551.1,697.2c-5.7-3.3-14.3-3.6-19.2-0.8c-4.9,2.8-4.3,7.8,1.4,11.1c5.7,3.3,14.3,3.6,19.2,0.8
			C557.4,705.4,556.8,700.5,551.1,697.2z"/>
		<path class="st7" d="M492.9,669.5c-4-2.3-10-2.5-13.5-0.5c-3.5,2-3.1,5.5,0.9,7.8c4,2.3,10,2.5,13.5,0.5
			C497.3,675.3,496.9,671.8,492.9,669.5z"/>
		<path class="st7" d="M521.6,673.1c6.2-3.6,5.4-9.8-1.7-13.9c-7.1-4.1-17.9-4.6-24-1c-6.2,3.6-5.4,9.8,1.7,13.9
			C504.6,676.2,515.4,676.7,521.6,673.1z"/>
		<path class="st7" d="M567.4,694c-3.2-1.8-8-2-10.7-0.4c-2.7,1.6-2.4,4.4,0.8,6.2c3.2,1.8,8,2,10.7,0.4
			C570.9,698.6,570.5,695.9,567.4,694z"/>
		<path class="st7" d="M421.2,576.8c-0.1,0-0.1-0.1-0.2-0.1c-1.7-1-4.3-1.1-5.8-0.2c-1.5,0.9-1.3,2.4,0.4,3.4c1.7,1,4.3,1.1,5.8,0.2
			c0.2-0.1,0.4-0.2,0.5-0.4c0.6,0.9,1.5,1.7,2.7,2.4c4.3,2.5,10.8,2.7,14.5,0.6c3.7-2.1,3.2-5.9-1-8.4c-4.3-2.5-10.8-2.7-14.5-0.6
			C422.2,574.5,421.4,575.6,421.2,576.8z"/>
		<path class="st7" d="M526.8,696.8c-1.8-1.1-4.6-1.2-6.2-0.3c-1.6,0.9-1.4,2.5,0.4,3.6c1.8,1.1,4.6,1.2,6.2,0.3
			C528.8,699.4,528.6,697.8,526.8,696.8z"/>
		<path class="st7" d="M401.5,624.5c-1.8-1.1-4.6-1.2-6.2-0.3c-1.6,0.9-1.4,2.5,0.4,3.6c1.8,1.1,4.6,1.2,6.2,0.3
			C403.6,627.1,403.4,625.5,401.5,624.5z"/>
		<path class="st7" d="M443.5,573.8c1.7,1,4.3,1.1,5.8,0.2c1.5-0.9,1.3-2.4-0.4-3.4c-1.7-1-4.3-1.1-5.8-0.2
			C441.6,571.4,441.7,572.9,443.5,573.8z"/>
		<path class="st7" d="M440.5,565.8c-3.1-1.8-7.9-2-10.6-0.4c-2.7,1.6-2.4,4.3,0.8,6.1c3.1,1.8,7.9,2,10.6,0.4
			C443.9,570.3,443.6,567.6,440.5,565.8z"/>
		<path class="st7" d="M605.4,687.9c-4.3-2.5-10.8-2.7-14.5-0.6c-3.7,2.1-3.2,5.9,1,8.4c4.3,2.5,10.8,2.7,14.5,0.6
			C610.1,694.1,609.7,690.4,605.4,687.9z"/>
		<path class="st7" d="M594.8,670.5c-2.8-1.6-7-1.8-9.3-0.4c-2.4,1.4-2.1,3.8,0.7,5.4c2.8,1.6,7,1.8,9.3,0.4
			C597.8,674.5,597.5,672.1,594.8,670.5z"/>
		<path class="st7" d="M595.4,682.1c-1.7-1-4.3-1.1-5.8-0.2c-1.5,0.9-1.3,2.4,0.4,3.4c1.7,1,4.3,1.1,5.8,0.2
			C597.3,684.6,597.1,683.1,595.4,682.1z"/>
		<path class="st7" d="M608.5,663c-2.5-1.4-6.3-1.6-8.4-0.3c-2.2,1.2-1.9,3.4,0.6,4.9c2.5,1.4,6.3,1.6,8.4,0.3
			C611.2,666.6,611,664.4,608.5,663z"/>
		<path class="st7" d="M576.4,676.7c-2.7,1.6-2.4,4.3,0.8,6.1c3.1,1.8,7.9,2,10.6,0.4c2.7-1.6,2.4-4.3-0.8-6.1
			C583.9,675.4,579.1,675.2,576.4,676.7z"/>
		<path class="st7" d="M577,660.7c-7.1-4.1-17.9-4.6-24-1c-6.2,3.6-5.4,9.8,1.7,13.9c7.1,4.1,17.9,4.6,24,1
			C584.9,671,584.1,664.8,577,660.7z"/>
		<path class="st7" d="M923.7,209.8l-182.8-96.9V66.8l15.2,8.8l1.8-1v-8l-15.6-9h0l-1.4-0.8V34.1l-6-3.4l-1.8,1v20.6l-15.2-8.8
			l-1.8,1v8l17,9.8V111l1.7,1v0.2c0,0,0,0.2,0,0.4L734,113l0,0L491.4,252.8v-1.2c3.1-0.7,2.8-2.4,2.8-2.4l-4.1-25.6
			c1.9-0.7,3.2-2.4,3.2-4.5c0-2.6-2.1-4.8-4.8-4.8c-2.6,0-4.8,2.1-4.8,4.8c0,2.1,1.3,3.8,3.2,4.5l-3.5,25.4c0,0-0.4,2,2.8,2.7v1.1
			l-2.9,1.6l-104.9,75.4l8.2,20.1l30.1-21.3l18.6,10.7v15v178.1v28.9l21.9,12.6v1.9c-4.2-1.7-9.5-1.6-12.8,0.2
			c-3.7,2.1-3.2,5.9,1,8.4c3.4,1.9,8.1,2.5,11.7,1.6v0.5c-2,1.4-1.9,3.5,0,5.2v0.4c-0.9-1.7-2.6-3.3-5-4.7c-7.1-4.1-17.9-4.6-24-1
			c-3.6,2.1-4.8,5.1-3.8,8.1c-0.3-0.5-0.8-0.9-1.4-1.3c-2.3-1.3-5.7-1.5-7.7-0.3c-2,1.1-1.7,3.1,0.6,4.5c2.3,1.3,5.7,1.5,7.7,0.3
			c1-0.6,1.4-1.4,1.3-2.3c0.9,1.7,2.6,3.4,5.1,4.9c7.1,4.1,17.9,4.6,24,1c1.5-0.9,2.6-1.9,3.3-3v5.7c-3.7-1.4-8.3-1.4-11.1,0.3
			c-3.3,1.9-2.9,5.2,0.9,7.4c2.9,1.7,7,2.2,10.2,1.5v3.8l4.9,2.9l60.3,34.7l1.5,0.9c-0.4,0.1-0.8,0.3-1.2,0.5
			c-2.4,1.4-2.1,3.8,0.7,5.4c2.8,1.6,7,1.8,9.3,0.4c1.9-1.1,2.1-2.8,0.8-4.2h2.1c-2.1,1.6-1.6,4.1,1.3,5.7c3.1,1.8,7.9,2,10.6,0.4
			c2.3-1.4,2.4-3.6,0.4-5.3c2.8,0.6,5.8,0.3,7.8-0.9c0,0,0,0,0,0h15.7c0.3,0,0.6,0,1,0h7.5c-1.6,2.1-0.6,4.9,2.8,6.8
			c4.3,2.5,10.8,2.7,14.5,0.6c3.3-1.9,3.3-5,0.3-7.4h4.5l38.6,22.3L840,564.3l53.6-96v-28.9V265.2L923.7,209.8z"/>
	</g>
</g>
<g id="Layer_5">
	<path class="st8" d="M562.3,677.4c1.5,0.8,1.6,2.1,0.4,2.8c-1.3,0.7-3.4,0.6-4.9-0.2c-1.5-0.8-1.6-2.1-0.4-2.8
		C558.7,676.5,560.9,676.6,562.3,677.4z"/>
	<path class="st8" d="M424.1,583.1c2.6,1.5,2.9,3.8,0.6,5.1c-2.3,1.3-6.2,1.1-8.8-0.4s-2.9-3.8-0.6-5.1
		C417.5,581.4,421.4,581.5,424.1,583.1z"/>
	
		<ellipse transform="matrix(0.121 -0.9927 0.9927 0.121 -205.5541 984.0118)" class="st8" cx="452.8" cy="608.1" rx="5.2" ry="9.1"/>
	<path class="st8" d="M440.2,604.1c2.2,1.3,2.5,3.3,0.5,4.4c-1.9,1.1-5.3,1-7.6-0.3c-2.2-1.3-2.5-3.3-0.5-4.4
		C434.5,602.7,437.9,602.8,440.2,604.1z"/>
	<path class="st8" d="M421,576.7c1.7,1,1.9,2.5,0.4,3.4c-1.5,0.9-4.1,0.8-5.8-0.2c-1.7-1-1.9-2.5-0.4-3.4
		C416.7,575.6,419.3,575.7,421,576.7z"/>
	
		<ellipse transform="matrix(0.121 -0.9927 0.9927 0.121 -243.1199 945.5248)" class="st8" cx="412.3" cy="610" rx="11.7" ry="20.7"/>
	<path class="st8" d="M442.9,619.5c4.3,2.5,4.8,6.2,1,8.4c-3.7,2.1-10.2,1.9-14.5-0.6c-4.3-2.5-4.8-6.2-1-8.4
		C432.2,616.7,438.7,617,442.9,619.5z"/>
	<path class="st8" d="M473.1,631.8c3.2,1.8,3.5,4.6,0.8,6.2c-2.8,1.6-7.6,1.4-10.8-0.4c-3.2-1.8-3.5-4.6-0.8-6.2
		C465.1,629.7,469.9,629.9,473.1,631.8z"/>
	<path class="st8" d="M473.6,627.2c1.5,0.8,1.6,2.1,0.4,2.8c-1.3,0.7-3.4,0.6-4.9-0.2c-1.5-0.8-1.6-2.1-0.4-2.8
		C469.9,626.3,472.1,626.3,473.6,627.2z"/>
	<path class="st8" d="M463.6,621.7c4.3,2.5,4.8,6.2,1,8.4c-3.7,2.1-10.2,1.9-14.5-0.6c-4.3-2.5-4.8-6.2-1-8.4
		C452.9,618.9,459.3,619.2,463.6,621.7z"/>
	<path class="st8" d="M386.7,604.9c4.9,2.8,5.4,7.1,1.2,9.6c-4.3,2.5-11.7,2.1-16.6-0.7c-4.9-2.8-5.4-7.1-1.2-9.6
		C374.3,601.8,381.8,602.1,386.7,604.9z"/>
	<path class="st8" d="M411.5,591.7c2.8,1.6,3.1,4,0.7,5.4c-2.4,1.4-6.6,1.2-9.3-0.4c-2.8-1.6-3.1-4-0.7-5.4S408.7,590.1,411.5,591.7
		z"/>
	<path class="st8" d="M427.3,638.6c2.1,1.2,2.3,3,0.5,4c-1.8,1-4.9,0.9-7-0.3c-2.1-1.2-2.3-3-0.5-4
		C422.2,637.3,425.3,637.4,427.3,638.6z"/>
	<path class="st8" d="M453.7,615.9c1.7,1,1.9,2.5,0.4,3.4c-1.5,0.9-4.1,0.8-5.8-0.2c-1.7-1-1.9-2.5-0.4-3.4
		C449.3,614.8,451.9,614.9,453.7,615.9z"/>
	<path class="st8" d="M422.9,593.1c2.3,1.3,2.5,3.3,0.6,4.5c-2,1.1-5.4,1-7.7-0.3c-2.3-1.3-2.5-3.3-0.6-4.5
		C417.1,591.7,420.6,591.8,422.9,593.1z"/>
	<path class="st8" d="M449.2,649.9c2.4,1.4,2.7,3.5,0.6,4.8c-2.1,1.2-5.8,1.1-8.3-0.3c-2.4-1.4-2.7-3.5-0.6-4.8
		C443,648.3,446.7,648.5,449.2,649.9z"/>
	<path class="st8" d="M396.5,616.4c3.3,1.9,3.7,4.8,0.8,6.5c-2.9,1.7-7.9,1.4-11.2-0.5c-3.3-1.9-3.7-4.8-0.8-6.5
		C388.2,614.3,393.2,614.5,396.5,616.4z"/>
	<path class="st8" d="M445.3,610.9c3.1,1.8,3.5,4.5,0.8,6.1c-2.7,1.6-7.4,1.4-10.6-0.4c-3.1-1.8-3.5-4.5-0.8-6.1
		C437.4,608.9,442.1,609.1,445.3,610.9z"/>
	<path class="st8" d="M390.9,590.8c3.3,1.9,3.6,4.8,0.8,6.4c-2.9,1.6-7.8,1.4-11.1-0.5c-3.3-1.9-3.6-4.8-0.8-6.4
		C382.6,588.7,387.6,588.9,390.9,590.8z"/>
	<path class="st8" d="M456.9,632.5c7.1,4.1,7.9,10.3,1.7,13.9c-6.2,3.6-16.9,3.1-24-1c-7.1-4.1-7.9-10.3-1.7-13.9
		C439.1,627.9,449.8,628.4,456.9,632.5z"/>
	
		<ellipse transform="matrix(0.121 -0.9927 0.9927 0.121 -236.678 1045.8083)" class="st8" cx="472.2" cy="656.5" rx="11.7" ry="20.7"/>
	
		<ellipse transform="matrix(0.121 -0.9927 0.9927 0.121 -204.7616 1133.6349)" class="st8" cx="537.7" cy="682.4" rx="11.7" ry="20.7"/>
	<path class="st8" d="M490.4,637.1c4.3,2.5,4.8,6.2,1,8.4c-3.7,2.1-10.2,1.9-14.5-0.6s-4.8-6.2-1-8.4
		C479.6,634.3,486.1,634.6,490.4,637.1z"/>
	
		<ellipse transform="matrix(0.121 -0.9927 0.9927 0.121 -206.3468 1066.7947)" class="st8" cx="499.2" cy="649.9" rx="5.8" ry="10.3"/>
	<path class="st8" d="M554.6,650.2c3.6,2.2,4.1,5.4,1,7.2c-3.1,1.8-8.5,1.4-12.1-0.7c-3.6-2.2-4.1-5.4-1-7.2
		C545.6,647.6,551,648,554.6,650.2z"/>
	<path class="st8" d="M598.5,704.2c3.2,1.8,3.5,4.6,0.8,6.2c-2.8,1.6-7.6,1.4-10.8-0.4c-3.2-1.8-3.5-4.6-0.8-6.2
		S595.3,702.3,598.5,704.2z"/>
	<path class="st8" d="M599,699.6c1.5,0.8,1.6,2.1,0.4,2.8c-1.3,0.7-3.4,0.6-4.9-0.2c-1.5-0.8-1.6-2.1-0.4-2.8
		C595.3,698.7,597.5,698.7,599,699.6z"/>
	<path class="st8" d="M516.5,652.1c1.9,1.1,2.1,2.8,0.5,3.8c-1.7,1-4.6,0.8-6.5-0.3c-1.9-1.1-2.1-2.8-0.5-3.8
		C511.6,650.9,514.6,651,516.5,652.1z"/>
	<path class="st8" d="M589,694.1c4.3,2.5,4.8,6.2,1,8.4c-3.7,2.1-10.2,1.9-14.5-0.6c-4.3-2.5-4.8-6.2-1-8.4
		C578.3,691.3,584.7,691.6,589,694.1z"/>
	<path class="st8" d="M536.9,664.1c2.8,1.6,3.1,4,0.7,5.4c-2.4,1.4-6.6,1.2-9.3-0.4c-2.8-1.6-3.1-4-0.7-5.4
		C529.9,662.3,534.1,662.5,536.9,664.1z"/>
	<path class="st8" d="M532,656.2c2.8,1.6,3.1,4,0.7,5.4c-2.4,1.4-6.6,1.2-9.3-0.4c-2.8-1.6-3.1-4-0.7-5.4
		C525,654.4,529.2,654.6,532,656.2z"/>
	<path class="st8" d="M552.7,711c2.1,1.2,2.3,3,0.5,4c-1.8,1-4.9,0.9-7-0.3c-2.1-1.2-2.3-3-0.5-4C547.6,709.7,550.7,709.8,552.7,711
		z"/>
	<path class="st8" d="M579,688.3c1.7,1,1.9,2.5,0.4,3.4c-1.5,0.9-4.1,0.8-5.8-0.2c-1.7-1-1.9-2.5-0.4-3.4
		C574.7,687.2,577.3,687.3,579,688.3z"/>
	<path class="st8" d="M547.5,666.6c2,1.2,2.2,2.9,0.5,3.9c-1.7,1-4.7,0.9-6.7-0.3c-2-1.2-2.2-2.9-0.5-3.9S545.5,665.5,547.5,666.6z"
		/>
	<path class="st8" d="M521.9,688.8c3.3,1.9,3.7,4.8,0.8,6.5c-2.9,1.7-7.9,1.4-11.2-0.5c-3.3-1.9-3.7-4.8-0.8-6.5
		C513.6,686.7,518.6,686.9,521.9,688.8z"/>
	<path class="st8" d="M546.7,657.4c3.1,1.8,3.5,4.5,0.8,6.1c-2.7,1.6-7.4,1.4-10.6-0.4c-3.1-1.8-3.5-4.5-0.8-6.1
		C538.8,655.4,543.6,655.6,546.7,657.4z"/>
	
		<ellipse transform="matrix(0.121 -0.9927 0.9927 0.121 -220.5762 1155.5802)" class="st8" cx="542.2" cy="702.3" rx="7.8" ry="13.7"/>
	<path class="st8" d="M492.9,669.5c4,2.3,4.4,5.8,0.9,7.8c-3.5,2-9.6,1.8-13.5-0.5c-4-2.3-4.4-5.8-0.9-7.8
		C482.9,667,488.9,667.2,492.9,669.5z"/>
	<path class="st8" d="M519.8,659.2c7.1,4.1,7.9,10.3,1.7,13.9s-16.9,3.1-24-1c-7.1-4.1-7.9-10.3-1.7-13.9S512.7,655.1,519.8,659.2z"
		/>
	<path class="st8" d="M567.4,694c3.2,1.8,3.5,4.6,0.8,6.2c-2.7,1.6-7.5,1.4-10.7-0.4c-3.2-1.8-3.5-4.6-0.8-6.2
		C559.4,692,564.2,692.2,567.4,694z"/>
	<path class="st8" d="M438.1,574.3c4.3,2.5,4.8,6.2,1,8.4c-3.7,2.1-10.2,1.9-14.5-0.6c-4.3-2.5-4.8-6.2-1-8.4
		C427.4,571.5,433.8,571.8,438.1,574.3z"/>
	<path class="st8" d="M468.3,586.6c3.2,1.8,3.5,4.6,0.8,6.2c-2.8,1.6-7.6,1.4-10.8-0.4c-3.2-1.8-3.5-4.6-0.8-6.2
		C460.3,584.6,465.1,584.8,468.3,586.6z"/>
	<path class="st8" d="M468.8,582c1.5,0.8,1.6,2.1,0.4,2.8c-1.3,0.7-3.4,0.6-4.9-0.2c-1.5-0.8-1.6-2.1-0.4-2.8
		C465.1,581.1,467.3,581.2,468.8,582z"/>
	<path class="st8" d="M574.1,652.9c1.9,1.1,2.1,2.8,0.5,3.8c-1.7,1-4.6,0.8-6.5-0.3c-1.9-1.1-2.1-2.8-0.5-3.8
		C569.2,651.7,572.2,651.8,574.1,652.9z"/>
	
		<ellipse transform="matrix(0.121 -0.9927 0.9927 0.121 -178.7041 958.9444)" class="st8" cx="452.1" cy="580.4" rx="5.8" ry="10.3"/>
	<path class="st8" d="M583.6,648.1c2.8,1.6,3.1,4,0.7,5.4c-2.4,1.4-6.6,1.2-9.3-0.4c-2.8-1.6-3.1-4-0.7-5.4
		C576.6,646.4,580.8,646.5,583.6,648.1z"/>
	<path class="st8" d="M526.8,696.8c1.8,1.1,2,2.7,0.4,3.6c-1.6,0.9-4.3,0.8-6.2-0.3c-1.8-1.1-2-2.7-0.4-3.6
		C522.2,695.6,524.9,695.7,526.8,696.8z"/>
	<path class="st8" d="M401.5,624.5c1.8,1.1,2,2.7,0.4,3.6c-1.6,0.9-4.3,0.8-6.2-0.3c-1.8-1.1-2-2.7-0.4-3.6
		C396.9,623.3,399.7,623.4,401.5,624.5z"/>
	<path class="st8" d="M448.8,570.7c1.7,1,1.9,2.5,0.4,3.4c-1.5,0.9-4.1,0.8-5.8-0.2c-1.7-1-1.9-2.5-0.4-3.4S447.1,569.7,448.8,570.7
		z"/>
	<path class="st8" d="M440.5,565.8c3.1,1.8,3.5,4.5,0.8,6.1c-2.7,1.6-7.4,1.4-10.6-0.4c-3.1-1.8-3.5-4.5-0.8-6.1
		C432.6,563.8,437.3,564,440.5,565.8z"/>
	<path class="st8" d="M452.1,587.3c7.1,4.1,7.9,10.3,1.7,13.9s-16.9,3.1-24-1c-7.1-4.1-7.9-10.3-1.7-13.9
		C434.2,582.8,445,583.2,452.1,587.3z"/>
	<path class="st8" d="M485.6,591.9c4.3,2.5,4.8,6.2,1,8.4c-3.7,2.1-10.2,1.9-14.5-0.6c-4.3-2.5-4.8-6.2-1-8.4
		C474.8,589.1,481.3,589.4,485.6,591.9z"/>
	<path class="st8" d="M570,642.2c4.3,2.5,4.8,6.2,1,8.4c-3.7,2.1-10.2,1.9-14.5-0.6c-4.3-2.5-4.8-6.2-1-8.4
		C559.2,639.5,565.7,639.8,570,642.2z"/>
	<path class="st8" d="M564.2,653.2c1.5,0.8,1.6,2.1,0.4,2.8c-1.3,0.7-3.4,0.6-4.9-0.2c-1.5-0.8-1.6-2.1-0.4-2.8
		C560.5,652.3,562.7,652.4,564.2,653.2z"/>
	<path class="st8" d="M605.4,687.9c4.3,2.5,4.8,6.2,1,8.4c-3.7,2.1-10.2,1.9-14.5-0.6c-4.3-2.5-4.8-6.2-1-8.4
		C594.6,685.2,601.1,685.4,605.4,687.9z"/>
	<path class="st8" d="M594.8,670.5c2.8,1.6,3.1,4,0.7,5.4c-2.4,1.4-6.6,1.2-9.3-0.4c-2.8-1.6-3.1-4-0.7-5.4
		C587.8,668.7,592,668.9,594.8,670.5z"/>
	<path class="st8" d="M595.4,682.1c1.7,1,1.9,2.5,0.4,3.4c-1.5,0.9-4.1,0.8-5.8-0.2c-1.7-1-1.9-2.5-0.4-3.4
		C591.1,681,593.7,681.2,595.4,682.1z"/>
	<path class="st8" d="M608.5,663c2.5,1.4,2.8,3.6,0.6,4.9c-2.2,1.2-5.9,1.1-8.4-0.3c-2.5-1.4-2.8-3.6-0.6-4.9
		C602.2,661.4,606,661.5,608.5,663z"/>
	<path class="st8" d="M587,677.2c3.1,1.8,3.5,4.5,0.8,6.1c-2.7,1.6-7.4,1.4-10.6-0.4c-3.1-1.8-3.5-4.5-0.8-6.1
		C579.1,675.2,583.9,675.4,587,677.2z"/>
	
		<ellipse transform="matrix(0.121 -0.9927 0.9927 0.121 -164.8454 1148.1818)" class="st8" cx="565.9" cy="667.2" rx="9.7" ry="17.1"/>
	
		<ellipse transform="matrix(0.121 -0.9927 0.9927 0.121 -137.4415 1165.2902)" class="st8" cx="589.2" cy="660.2" rx="5.8" ry="10.3"/>
	<polygon class="st8" points="640.4,418.7 840,303.4 840,564.3 640.4,679.6 	"/>
	<polygon class="st8" points="640.4,679.6 435.2,561.1 435.2,300.2 537.8,359.4 640.4,418.7 	"/>
	<polygon class="st8" points="893.6,468.3 840,564.3 840,303.4 893.6,207.4 	"/>
	<polygon class="st8" points="840,535.4 840,564.3 640.4,679.6 640.4,650.7 	"/>
	<polygon class="st8" points="840,535.4 840,564.3 893.6,468.3 893.6,439.5 	"/>
	<polygon class="st8" points="564.7,607 564.7,635.9 640.4,679.6 640.4,650.7 	"/>
	<polygon class="st8" points="435.2,532.3 435.2,561.1 510.9,604.8 510.9,576 	"/>
	<g class="st9">
		<path class="st10" d="M767.1,421.8c-5.3-7.3-14.3-9-24.4-3.1c-10.2,5.9-19.1,17.9-24.4,31.4l0,127l48.8-28.2L767.1,421.8z"/>
		<path class="st10" d="M742.7,422.3c8.6-5,16.7-4.1,21.7,2.2l0,122.3L721,571.9l0-122.3C726,437.4,734.1,427.2,742.7,422.3
			 M742.7,418.7c-10.2,5.9-19.1,17.9-24.4,31.4l0,127l48.8-28.2l0-127C761.8,414.5,752.9,412.9,742.7,418.7L742.7,418.7z"/>
	</g>
	<polygon class="st8" points="767.2,529.5 718.3,557.6 718.3,556.2 767.2,528 	"/>
	<polygon class="st8" points="767.2,509.2 718.3,537.4 718.3,536 767.2,507.8 	"/>
	<polygon class="st8" points="767.2,489 718.3,517.2 718.3,515.8 767.2,487.6 	"/>
	<polygon class="st8" points="767.2,468.8 718.3,497 718.3,495.6 767.2,467.4 	"/>
	<polygon class="st8" points="767.2,448.6 718.3,476.7 718.3,475.3 767.2,447.1 	"/>
	<polygon class="st8" points="767.2,428.3 718.3,456.5 718.3,455.1 767.2,426.9 	"/>
	<path class="st8" d="M762.6,417.5"/>
	<path class="st8" d="M723,440.3"/>
	<polygon class="st8" points="742.3,563.2 742.3,419 743.3,418.3 743.4,562.6 	"/>
	<polygon class="st8" points="730.8,569.8 730.8,429.1 731.9,428.5 731.9,569.2 	"/>
	<polygon class="st8" points="753.8,556.6 753.7,416 754.8,415.4 754.8,556 	"/>
	<path class="st8" d="M713.5,592.8l0-136.9l0-3.1l1.3-3.3c6.9-17.5,18.3-32.2,30.6-39.3l0,0c6.9-4,13.5-5.2,19.2-3.9l6.9,3
		c-6.6-3.6-15-2.9-23.8,2.2l0,0c-12.3,7.1-23.7,21.8-30.6,39.3l-1.3,3.3l0,3.1l0,136.9L713.5,592.8z"/>
	<polygon class="st8" points="723.3,579.8 772.1,551.6 767.2,548.8 718.3,577 	"/>
	<polygon class="st8" points="772.1,551.6 767.2,548.8 767.1,421.8 772.1,424.6 	"/>
	<path class="st8" d="M767.1,421.8c-0.9-1.2-1.9-2.2-2.9-3.1c3.1,1,5.8,3,7.9,5.9L767.1,421.8z"/>
	<path class="st8" d="M767.1,421.8c-0.9-1.2-1.9-2.3-2.9-3.2"/>
	<path class="st8" d="M747.7,421.5c10.1-5.9,19.1-4.2,24.4,3.1l0,127l-48.8,28.2l0-127C728.6,439.4,737.5,427.3,747.7,421.5
		 M747.7,411.5c-12.3,7.1-23.7,21.8-30.6,39.3l-1.3,3.3l0,3.1l0,136.9l63.8-36.8l0-137l0-3.1l-1.3-1.8
		C771.4,405.9,759.9,404.5,747.7,411.5L747.7,411.5z"/>
	<polygon class="st8" points="462,470.7 499.5,432.9 499.5,598.3 462,619.7 	"/>
	<polygon class="st8" points="462,470.7 499.5,432.9 499.5,555.9 462,505.3 	"/>
	<polygon class="st8" points="457.1,467.8 462,470.7 462,619.7 457.1,616.8 	"/>
	<polygon class="st8" points="457.1,467.8 462,470.7 462,505.3 457.1,502.3 	"/>
	<polygon class="st8" points="640.4,650.7 640.4,418.7 653.2,411.2 653.2,643.3 	"/>
	<polygon class="st8" points="640.4,650.7 640.4,418.7 627.6,411.2 627.6,643.3 	"/>
	<g>
		<g class="st9">
			<polygon class="st10" points="546.2,596.2 546.2,483.2 507.7,460.8 507.7,574 			"/>
		</g>
	</g>
	<polygon class="st8" points="448,539.6 448,307.6 435.2,300.2 435.2,532.3 	"/>
	<polygon class="st8" points="827.3,542.8 827.3,310.8 840,303.3 840,535.4 	"/>
	<polygon class="st8" points="846.4,524.1 846.4,292 840,303.3 840,535.4 	"/>
	<polygon class="st8" points="893.6,439.5 893.6,207.4 887.2,218.7 887.2,450.8 	"/>
	<polygon class="st8" points="840,303.4 840,357.3 640.4,472.6 640.4,418.7 	"/>
	<polygon class="st8" points="840,303.4 840,357.3 893.6,261.3 893.6,207.4 	"/>
	<polygon class="st8" points="435.2,300.2 435.2,354.2 640.4,472.6 640.4,418.7 	"/>
	<polygon class="st8" points="503.9,245.8 606.5,438 401.3,319.6 	"/>
	<polygon class="st8" points="401.3,319.6 606.5,438 593.4,413.3 414.9,310.2 	"/>
	<polygon class="st8" points="499.5,432.9 499.5,555.9 559.9,590.8 559.9,467.8 	"/>
	<polygon class="st8" points="462,610.5 462,619.7 522.3,654.4 522.3,645.2 	"/>
	<polygon class="st8" points="472.6,604.5 462,610.5 522.3,645.2 532.9,639.2 	"/>
	<polygon class="st8" points="472.6,594.5 472.6,604.5 532.9,639.2 532.9,629.1 	"/>
	<polygon class="st8" points="483.1,588.5 472.6,594.5 532.9,629.1 543.4,623.2 	"/>
	<polygon class="st8" points="483.1,578.5 483.1,588.5 543.4,623.2 543.4,613.1 	"/>
	<polygon class="st8" points="499.6,569.2 483.1,578.5 543.4,613.1 559.9,603.9 	"/>
	<polygon class="st8" points="527.3,508.3 564.7,470.5 564.7,635.9 527.3,657.3 	"/>
	<polygon class="st8" points="527.3,508.3 564.7,470.5 577.6,488.1 564.7,509 527.3,542.9 	"/>
	<polygon class="st8" points="522.3,505.4 527.3,508.3 527.3,657.3 522.3,654.4 	"/>
	<polygon class="st8" points="522.3,505.4 527.3,508.3 527.3,542.9 522.3,539.9 	"/>
	<polygon class="st8" points="441.1,474.3 488.6,426.3 577.6,477.8 530.1,525.7 	"/>
	<polygon class="st8" points="530.1,525.7 577.6,477.8 577.6,488.1 533.4,532.7 	"/>
	<polygon class="st8" points="530.1,525.7 441.1,474.3 444.4,481.2 533.4,532.7 	"/>
	<line class="st8" x1="537.5" y1="518.7" x2="448.4" y2="467.3"/>
	<line class="st8" x1="546.3" y1="509.8" x2="457.2" y2="458.4"/>
	<line class="st8" x1="555.2" y1="500.9" x2="466.1" y2="449.5"/>
	<line class="st8" x1="564.1" y1="492" x2="475" y2="440.6"/>
	<line class="st8" x1="572.8" y1="483.1" x2="483.7" y2="431.7"/>
	<polygon class="st8" points="564.7,509 577.6,488.1 577.6,477.8 601.8,507.8 601.8,657.3 527.3,657.3 564.7,635.9 	"/>
	<polygon class="st8" points="503.8,322.8 502.8,319.6 492.3,313.5 492.3,300.8 491.3,297.6 488.3,295.8 488.3,313.9 475.6,306.5 
		475.6,310.7 476.8,312.6 487,318.5 487,350.2 488.3,352.2 492.3,354.5 492.3,321.6 503.8,328.2 	"/>
	<g class="st9">
		<polygon class="st10" points="491.3,318.3 490.1,319 490.1,352 491.3,351.3 		"/>
		<polygon class="st10" points="491.3,297.6 490.1,298.3 490.1,313.6 491.3,312.9 		"/>
		<polygon class="st10" points="502.8,319.6 501.6,320.3 490.1,313.6 491.3,312.9 		"/>
		<polygon class="st10" points="502.8,325 501.6,325.7 501.6,320.3 502.8,319.6 		"/>
		<polygon class="st10" points="475.8,304 474.6,304.7 486.1,311.3 487.3,310.6 		"/>
		<polygon class="st10" points="487.3,295.3 486.1,296 490.1,298.3 491.3,297.6 		"/>
		<polygon class="st10" points="501.6,320.3 490.1,313.6 490.1,298.3 486.1,296 486.1,311.3 474.6,304.7 474.6,310 486.1,316.7 
			486.1,349.6 490.1,352 490.1,319 501.6,325.7 		"/>
		<polygon class="st11" points="490.1,313.6 491.3,312.9 492.3,313.5 		"/>
	</g>
	<polygon class="st8" points="503.9,291.2 436.3,339.8 401.3,319.6 503.9,245.8 522.1,280 	"/>
	<polygon class="st8" points="857,332.8 737.5,111.1 484.6,256.7 604.1,478.3 	"/>
	<polygon class="st8" points="737.5,111.1 857,332.8 923.7,209.8 	"/>
	<line class="st8" x1="593.5" y1="458.4" x2="846.3" y2="312.9"/>
	<line class="st8" x1="582" y1="437.2" x2="834.9" y2="291.7"/>
	<line class="st8" x1="570.8" y1="416.2" x2="823.6" y2="270.6"/>
	<line class="st8" x1="559.1" y1="394.7" x2="811.9" y2="249.2"/>
	<line class="st8" x1="547.5" y1="373.5" x2="800.3" y2="227.9"/>
	<line class="st8" x1="536.3" y1="352.4" x2="789.1" y2="206.8"/>
	<line class="st8" x1="524.6" y1="330.8" x2="777.5" y2="185.2"/>
	<line class="st8" x1="513.5" y1="310.2" x2="766.3" y2="164.6"/>
	<line class="st8" x1="502" y1="288.6" x2="754.9" y2="143.1"/>
	<line class="st8" x1="490.9" y1="268" x2="743.7" y2="122.5"/>
	<line class="st8" x1="846.3" y1="312.9" x2="907" y2="201"/>
	<line class="st8" x1="834.9" y1="291.7" x2="889.2" y2="191.5"/>
	<line class="st8" x1="823.6" y1="270.6" x2="871.5" y2="182.2"/>
	<line class="st8" x1="811.9" y1="249.2" x2="853.5" y2="172.6"/>
	<line class="st8" x1="800.3" y1="227.9" x2="835.5" y2="163.1"/>
	<line class="st8" x1="789.1" y1="206.8" x2="817.9" y2="153.7"/>
	<line class="st8" x1="777.5" y1="185.2" x2="799.7" y2="144.1"/>
	<line class="st8" x1="766.3" y1="164.6" x2="782.4" y2="135"/>
	<line class="st8" x1="754.9" y1="143.1" x2="764.4" y2="125.4"/>
	<line class="st8" x1="743.7" y1="122.5" x2="747.1" y2="116.2"/>
	<polygon class="st8" points="737.5,111.1 857,332.8 853.5,334.7 734,113 	"/>
	<polygon class="st8" points="857,332.8 858.7,329.4 743.9,117 922.2,212.2 923.7,209.8 737.5,111.1 	"/>
	<path class="st8" d="M740,103.7c0,0,0.2,1.5-2.8,1.5c-2.7,0-2.4-1.6-2.4-1.6v8.7c0,0-0.3,1.6,2.4,1.6c3,0,2.8-1.5,2.8-1.5V103.7z"
		/>
	<path class="st8" d="M491.4,249.9c0,0,0.2,1.5-2.8,1.5c-2.7,0-2.4-1.6-2.4-1.6v5c0,0-0.3,1.6,2.4,1.6c3,0,2.8-1.5,2.8-1.5V249.9z"
		/>
	<path class="st8" d="M490,223.6l4.1,25.6c0,0,0.5,2.6-5.7,2.6c-5.6,0-5-2.9-5-2.9l3.5-25.4H490z"/>
	<path class="st8" d="M487.1,224.6c0,0,0.1,0.7,0.6,1.1l-1.6,24.8c0,0-1.4-0.2-2.1-1.8L487.1,224.6z"/>
	<path class="st8" d="M486.9,223.6c-1.9-0.7-3.2-2.4-3.2-4.5c0-2.6,2.1-4.8,4.8-4.8c2.6,0,4.8,2.1,4.8,4.8c0,2.1-1.3,3.8-3.2,4.5
		C490,223.6,488.2,224.3,486.9,223.6z"/>
	<path class="st8" d="M487.6,223.1c1,0.5,2.4,0,2.4,0c1.4-0.5,2.5-1.8,2.5-3.4C492.5,219.6,491,222.8,487.6,223.1z"/>
	<path class="st8" d="M485.5,217.4c0,1.1,0.9,2,2,2c1.1,0,2-0.9,2-2c0-1.1-0.9-2-2-2C486.4,215.4,485.5,216.3,485.5,217.4z"/>
	<path class="st8" d="M492.2,250.3c1-0.3,1.3-1.3,1.3-1.3l-4-25.2l-0.5,0.1L492.2,250.3z"/>
	<polygon class="st8" points="483.3,254.3 378.4,329.7 386.6,349.8 484.6,280.2 594.2,484.8 604.1,478.3 	"/>
	<polygon class="st8" points="486.8,252.3 607.6,476.4 604.1,478.3 483.3,254.3 	"/>
	<g class="st9">
		<polygon class="st10" points="740.8,64.7 739,65.8 739,114.4 740.8,113.4 		"/>
		<polygon class="st10" points="740.8,34.1 739,35.1 739,57.8 740.8,56.8 		"/>
		<polygon class="st10" points="757.9,66.6 756.1,67.6 739,57.8 740.8,56.8 		"/>
		<polygon class="st10" points="757.9,74.5 756.1,75.6 756.1,67.6 757.9,66.6 		"/>
		<polygon class="st10" points="717.9,43.5 716.1,44.5 733.1,54.3 734.9,53.3 		"/>
		<polygon class="st10" points="734.9,30.6 733.1,31.7 739,35.1 740.8,34.1 		"/>
		<polygon class="st10" points="756.1,67.6 739,57.8 739,35.1 733.1,31.7 733.1,54.3 716.1,44.5 716.1,52.5 733.1,62.3 733.1,111 
			739,114.4 739,65.8 756.1,75.6 		"/>
		<polygon class="st11" points="739,57.8 740.8,56.8 742.3,57.6 		"/>
	</g>
</g>
<g id="Layer_4">
	<path class="st12" d="M562.3,677.4c1.5,0.8,1.6,2.1,0.4,2.8c-1.3,0.7-3.4,0.6-4.9-0.2c-1.5-0.8-1.6-2.1-0.4-2.8
		C558.7,676.5,560.9,676.6,562.3,677.4z"/>
	<path class="st12" d="M424.1,583.1c2.6,1.5,2.9,3.8,0.6,5.1c-2.3,1.3-6.2,1.1-8.8-0.4s-2.9-3.8-0.6-5.1
		C417.5,581.4,421.4,581.5,424.1,583.1z"/>
	
		<ellipse transform="matrix(0.121 -0.9927 0.9927 0.121 -205.5541 984.0118)" class="st12" cx="452.8" cy="608.1" rx="5.2" ry="9.1"/>
	<path class="st12" d="M440.2,604.1c2.2,1.3,2.5,3.3,0.5,4.4c-1.9,1.1-5.3,1-7.6-0.3c-2.2-1.3-2.5-3.3-0.5-4.4
		C434.5,602.7,437.9,602.8,440.2,604.1z"/>
	<path class="st12" d="M421,576.7c1.7,1,1.9,2.5,0.4,3.4c-1.5,0.9-4.1,0.8-5.8-0.2c-1.7-1-1.9-2.5-0.4-3.4
		C416.7,575.6,419.3,575.7,421,576.7z"/>
	
		<ellipse transform="matrix(0.121 -0.9927 0.9927 0.121 -243.1199 945.5248)" class="st12" cx="412.3" cy="610" rx="11.7" ry="20.7"/>
	<path class="st12" d="M442.9,619.5c4.3,2.5,4.8,6.2,1,8.4c-3.7,2.1-10.2,1.9-14.5-0.6c-4.3-2.5-4.8-6.2-1-8.4
		C432.2,616.7,438.7,617,442.9,619.5z"/>
	<path class="st12" d="M473.1,631.8c3.2,1.8,3.5,4.6,0.8,6.2c-2.8,1.6-7.6,1.4-10.8-0.4c-3.2-1.8-3.5-4.6-0.8-6.2
		C465.1,629.7,469.9,629.9,473.1,631.8z"/>
	<path class="st12" d="M473.6,627.2c1.5,0.8,1.6,2.1,0.4,2.8c-1.3,0.7-3.4,0.6-4.9-0.2c-1.5-0.8-1.6-2.1-0.4-2.8
		C469.9,626.3,472.1,626.3,473.6,627.2z"/>
	<path class="st12" d="M463.6,621.7c4.3,2.5,4.8,6.2,1,8.4c-3.7,2.1-10.2,1.9-14.5-0.6c-4.3-2.5-4.8-6.2-1-8.4
		C452.9,618.9,459.3,619.2,463.6,621.7z"/>
	<path class="st12" d="M386.7,604.9c4.9,2.8,5.4,7.1,1.2,9.6c-4.3,2.5-11.7,2.1-16.6-0.7c-4.9-2.8-5.4-7.1-1.2-9.6
		C374.3,601.8,381.8,602.1,386.7,604.9z"/>
	<path class="st12" d="M411.5,591.7c2.8,1.6,3.1,4,0.7,5.4c-2.4,1.4-6.6,1.2-9.3-0.4c-2.8-1.6-3.1-4-0.7-5.4
		S408.7,590.1,411.5,591.7z"/>
	<path class="st12" d="M427.3,638.6c2.1,1.2,2.3,3,0.5,4c-1.8,1-4.9,0.9-7-0.3c-2.1-1.2-2.3-3-0.5-4
		C422.2,637.3,425.3,637.4,427.3,638.6z"/>
	<path class="st12" d="M453.7,615.9c1.7,1,1.9,2.5,0.4,3.4c-1.5,0.9-4.1,0.8-5.8-0.2c-1.7-1-1.9-2.5-0.4-3.4
		C449.3,614.8,451.9,614.9,453.7,615.9z"/>
	<path class="st12" d="M422.9,593.1c2.3,1.3,2.5,3.3,0.6,4.5c-2,1.1-5.4,1-7.7-0.3c-2.3-1.3-2.5-3.3-0.6-4.5
		C417.1,591.7,420.6,591.8,422.9,593.1z"/>
	<path class="st12" d="M449.2,649.9c2.4,1.4,2.7,3.5,0.6,4.8c-2.1,1.2-5.8,1.1-8.3-0.3c-2.4-1.4-2.7-3.5-0.6-4.8
		C443,648.3,446.7,648.5,449.2,649.9z"/>
	<path class="st12" d="M396.5,616.4c3.3,1.9,3.7,4.8,0.8,6.5c-2.9,1.7-7.9,1.4-11.2-0.5c-3.3-1.9-3.7-4.8-0.8-6.5
		C388.2,614.3,393.2,614.5,396.5,616.4z"/>
	<path class="st12" d="M445.3,610.9c3.1,1.8,3.5,4.5,0.8,6.1c-2.7,1.6-7.4,1.4-10.6-0.4c-3.1-1.8-3.5-4.5-0.8-6.1
		C437.4,608.9,442.1,609.1,445.3,610.9z"/>
	<path class="st12" d="M390.9,590.8c3.3,1.9,3.6,4.8,0.8,6.4c-2.9,1.6-7.8,1.4-11.1-0.5c-3.3-1.9-3.6-4.8-0.8-6.4
		C382.6,588.7,387.6,588.9,390.9,590.8z"/>
	<path class="st12" d="M456.9,632.5c7.1,4.1,7.9,10.3,1.7,13.9c-6.2,3.6-16.9,3.1-24-1c-7.1-4.1-7.9-10.3-1.7-13.9
		C439.1,627.9,449.8,628.4,456.9,632.5z"/>
	
		<ellipse transform="matrix(0.121 -0.9927 0.9927 0.121 -236.678 1045.8083)" class="st12" cx="472.2" cy="656.5" rx="11.7" ry="20.7"/>
	
		<ellipse transform="matrix(0.121 -0.9927 0.9927 0.121 -204.7616 1133.6349)" class="st12" cx="537.7" cy="682.4" rx="11.7" ry="20.7"/>
	<path class="st12" d="M490.4,637.1c4.3,2.5,4.8,6.2,1,8.4c-3.7,2.1-10.2,1.9-14.5-0.6s-4.8-6.2-1-8.4
		C479.6,634.3,486.1,634.6,490.4,637.1z"/>
	
		<ellipse transform="matrix(0.121 -0.9927 0.9927 0.121 -206.3468 1066.7947)" class="st12" cx="499.2" cy="649.9" rx="5.8" ry="10.3"/>
	<path class="st12" d="M554.6,650.2c3.6,2.2,4.1,5.4,1,7.2c-3.1,1.8-8.5,1.4-12.1-0.7c-3.6-2.2-4.1-5.4-1-7.2
		C545.6,647.6,551,648,554.6,650.2z"/>
	<path class="st12" d="M598.5,704.2c3.2,1.8,3.5,4.6,0.8,6.2c-2.8,1.6-7.6,1.4-10.8-0.4c-3.2-1.8-3.5-4.6-0.8-6.2
		S595.3,702.3,598.5,704.2z"/>
	<path class="st12" d="M599,699.6c1.5,0.8,1.6,2.1,0.4,2.8c-1.3,0.7-3.4,0.6-4.9-0.2c-1.5-0.8-1.6-2.1-0.4-2.8
		C595.3,698.7,597.5,698.7,599,699.6z"/>
	<path class="st12" d="M516.5,652.1c1.9,1.1,2.1,2.8,0.5,3.8c-1.7,1-4.6,0.8-6.5-0.3c-1.9-1.1-2.1-2.8-0.5-3.8
		C511.6,650.9,514.6,651,516.5,652.1z"/>
	<path class="st12" d="M589,694.1c4.3,2.5,4.8,6.2,1,8.4c-3.7,2.1-10.2,1.9-14.5-0.6c-4.3-2.5-4.8-6.2-1-8.4
		C578.3,691.3,584.7,691.6,589,694.1z"/>
	<path class="st12" d="M536.9,664.1c2.8,1.6,3.1,4,0.7,5.4c-2.4,1.4-6.6,1.2-9.3-0.4c-2.8-1.6-3.1-4-0.7-5.4
		C529.9,662.3,534.1,662.5,536.9,664.1z"/>
	<path class="st12" d="M532,656.2c2.8,1.6,3.1,4,0.7,5.4c-2.4,1.4-6.6,1.2-9.3-0.4c-2.8-1.6-3.1-4-0.7-5.4
		C525,654.4,529.2,654.6,532,656.2z"/>
	<path class="st12" d="M552.7,711c2.1,1.2,2.3,3,0.5,4c-1.8,1-4.9,0.9-7-0.3c-2.1-1.2-2.3-3-0.5-4
		C547.6,709.7,550.7,709.8,552.7,711z"/>
	<path class="st12" d="M579,688.3c1.7,1,1.9,2.5,0.4,3.4c-1.5,0.9-4.1,0.8-5.8-0.2c-1.7-1-1.9-2.5-0.4-3.4
		C574.7,687.2,577.3,687.3,579,688.3z"/>
	<path class="st12" d="M547.5,666.6c2,1.2,2.2,2.9,0.5,3.9c-1.7,1-4.7,0.9-6.7-0.3c-2-1.2-2.2-2.9-0.5-3.9S545.5,665.5,547.5,666.6z
		"/>
	<path class="st12" d="M521.9,688.8c3.3,1.9,3.7,4.8,0.8,6.5c-2.9,1.7-7.9,1.4-11.2-0.5c-3.3-1.9-3.7-4.8-0.8-6.5
		C513.6,686.7,518.6,686.9,521.9,688.8z"/>
	<path class="st12" d="M546.7,657.4c3.1,1.8,3.5,4.5,0.8,6.1c-2.7,1.6-7.4,1.4-10.6-0.4c-3.1-1.8-3.5-4.5-0.8-6.1
		C538.8,655.4,543.6,655.6,546.7,657.4z"/>
	
		<ellipse transform="matrix(0.121 -0.9927 0.9927 0.121 -220.5762 1155.5802)" class="st12" cx="542.2" cy="702.3" rx="7.8" ry="13.7"/>
	<path class="st12" d="M492.9,669.5c4,2.3,4.4,5.8,0.9,7.8c-3.5,2-9.6,1.8-13.5-0.5c-4-2.3-4.4-5.8-0.9-7.8
		C482.9,667,488.9,667.2,492.9,669.5z"/>
	<path class="st12" d="M519.8,659.2c7.1,4.1,7.9,10.3,1.7,13.9s-16.9,3.1-24-1c-7.1-4.1-7.9-10.3-1.7-13.9S512.7,655.1,519.8,659.2z
		"/>
	<path class="st12" d="M567.4,694c3.2,1.8,3.5,4.6,0.8,6.2c-2.7,1.6-7.5,1.4-10.7-0.4c-3.2-1.8-3.5-4.6-0.8-6.2
		C559.4,692,564.2,692.2,567.4,694z"/>
	<path class="st12" d="M438.1,574.3c4.3,2.5,4.8,6.2,1,8.4c-3.7,2.1-10.2,1.9-14.5-0.6c-4.3-2.5-4.8-6.2-1-8.4
		C427.4,571.5,433.8,571.8,438.1,574.3z"/>
	<path class="st12" d="M468.3,586.6c3.2,1.8,3.5,4.6,0.8,6.2c-2.8,1.6-7.6,1.4-10.8-0.4c-3.2-1.8-3.5-4.6-0.8-6.2
		C460.3,584.6,465.1,584.8,468.3,586.6z"/>
	<path class="st12" d="M468.8,582c1.5,0.8,1.6,2.1,0.4,2.8c-1.3,0.7-3.4,0.6-4.9-0.2c-1.5-0.8-1.6-2.1-0.4-2.8
		C465.1,581.1,467.3,581.2,468.8,582z"/>
	<path class="st12" d="M574.1,652.9c1.9,1.1,2.1,2.8,0.5,3.8c-1.7,1-4.6,0.8-6.5-0.3c-1.9-1.1-2.1-2.8-0.5-3.8
		C569.2,651.7,572.2,651.8,574.1,652.9z"/>
	
		<ellipse transform="matrix(0.121 -0.9927 0.9927 0.121 -178.7041 958.9444)" class="st12" cx="452.1" cy="580.4" rx="5.8" ry="10.3"/>
	<path class="st12" d="M583.6,648.1c2.8,1.6,3.1,4,0.7,5.4c-2.4,1.4-6.6,1.2-9.3-0.4c-2.8-1.6-3.1-4-0.7-5.4
		C576.6,646.4,580.8,646.5,583.6,648.1z"/>
	<path class="st12" d="M526.8,696.8c1.8,1.1,2,2.7,0.4,3.6c-1.6,0.9-4.3,0.8-6.2-0.3c-1.8-1.1-2-2.7-0.4-3.6
		C522.2,695.6,524.9,695.7,526.8,696.8z"/>
	<path class="st12" d="M401.5,624.5c1.8,1.1,2,2.7,0.4,3.6c-1.6,0.9-4.3,0.8-6.2-0.3c-1.8-1.1-2-2.7-0.4-3.6
		C396.9,623.3,399.7,623.4,401.5,624.5z"/>
	<path class="st12" d="M448.8,570.7c1.7,1,1.9,2.5,0.4,3.4c-1.5,0.9-4.1,0.8-5.8-0.2c-1.7-1-1.9-2.5-0.4-3.4
		S447.1,569.7,448.8,570.7z"/>
	<path class="st12" d="M440.5,565.8c3.1,1.8,3.5,4.5,0.8,6.1c-2.7,1.6-7.4,1.4-10.6-0.4c-3.1-1.8-3.5-4.5-0.8-6.1
		C432.6,563.8,437.3,564,440.5,565.8z"/>
	<path class="st12" d="M452.1,587.3c7.1,4.1,7.9,10.3,1.7,13.9s-16.9,3.1-24-1c-7.1-4.1-7.9-10.3-1.7-13.9
		C434.2,582.8,445,583.2,452.1,587.3z"/>
	<path class="st12" d="M485.6,591.9c4.3,2.5,4.8,6.2,1,8.4c-3.7,2.1-10.2,1.9-14.5-0.6c-4.3-2.5-4.8-6.2-1-8.4
		C474.8,589.1,481.3,589.4,485.6,591.9z"/>
	<path class="st12" d="M570,642.2c4.3,2.5,4.8,6.2,1,8.4c-3.7,2.1-10.2,1.9-14.5-0.6c-4.3-2.5-4.8-6.2-1-8.4
		C559.2,639.5,565.7,639.8,570,642.2z"/>
	<path class="st12" d="M564.2,653.2c1.5,0.8,1.6,2.1,0.4,2.8c-1.3,0.7-3.4,0.6-4.9-0.2c-1.5-0.8-1.6-2.1-0.4-2.8
		C560.5,652.3,562.7,652.4,564.2,653.2z"/>
	<path class="st12" d="M605.4,687.9c4.3,2.5,4.8,6.2,1,8.4c-3.7,2.1-10.2,1.9-14.5-0.6c-4.3-2.5-4.8-6.2-1-8.4
		C594.6,685.2,601.1,685.4,605.4,687.9z"/>
	<path class="st12" d="M594.8,670.5c2.8,1.6,3.1,4,0.7,5.4c-2.4,1.4-6.6,1.2-9.3-0.4c-2.8-1.6-3.1-4-0.7-5.4
		C587.8,668.7,592,668.9,594.8,670.5z"/>
	<path class="st12" d="M595.4,682.1c1.7,1,1.9,2.5,0.4,3.4c-1.5,0.9-4.1,0.8-5.8-0.2c-1.7-1-1.9-2.5-0.4-3.4
		C591.1,681,593.7,681.2,595.4,682.1z"/>
	<path class="st12" d="M608.5,663c2.5,1.4,2.8,3.6,0.6,4.9c-2.2,1.2-5.9,1.1-8.4-0.3c-2.5-1.4-2.8-3.6-0.6-4.9
		C602.2,661.4,606,661.5,608.5,663z"/>
	<path class="st12" d="M587,677.2c3.1,1.8,3.5,4.5,0.8,6.1c-2.7,1.6-7.4,1.4-10.6-0.4c-3.1-1.8-3.5-4.5-0.8-6.1
		C579.1,675.2,583.9,675.4,587,677.2z"/>
	
		<ellipse transform="matrix(0.121 -0.9927 0.9927 0.121 -164.8454 1148.1818)" class="st12" cx="565.9" cy="667.2" rx="9.7" ry="17.1"/>
	
		<ellipse transform="matrix(0.121 -0.9927 0.9927 0.121 -137.4415 1165.2902)" class="st12" cx="589.2" cy="660.2" rx="5.8" ry="10.3"/>
	<polygon class="st13" points="840,564.3 640.4,679.6 782.5,679.6 982.1,564.3 1007.4,475.1 907.5,426.8 893.6,424 893.6,468.3 	"/>
	<polygon class="st12" points="640.4,418.7 840,303.4 840,564.3 640.4,679.6 	"/>
	<polygon class="st12" points="640.4,679.6 435.2,561.1 435.2,300.2 537.8,359.4 640.4,418.7 	"/>
	<polygon class="st12" points="893.6,468.3 840,564.3 840,303.4 893.6,207.4 	"/>
	<polygon class="st12" points="840,535.4 840,564.3 640.4,679.6 640.4,650.7 	"/>
	<polygon class="st12" points="840,535.4 840,564.3 893.6,468.3 893.6,439.5 	"/>
	<polygon class="st12" points="564.7,607 564.7,635.9 640.4,679.6 640.4,650.7 	"/>
	<polygon class="st12" points="435.2,532.3 435.2,561.1 510.9,604.8 510.9,576 	"/>
	<g>
		<path class="st12" d="M767.1,421.8c-5.3-7.3-14.3-9-24.4-3.1c-10.2,5.9-19.1,17.9-24.4,31.4l0,127l48.8-28.2L767.1,421.8z"/>
		<path class="st12" d="M742.7,422.3c8.6-5,16.7-4.1,21.7,2.2l0,122.3L721,571.9l0-122.3C726,437.4,734.1,427.2,742.7,422.3
			 M742.7,418.7c-10.2,5.9-19.1,17.9-24.4,31.4l0,127l48.8-28.2l0-127C761.8,414.5,752.9,412.9,742.7,418.7L742.7,418.7z"/>
	</g>
	<polygon class="st12" points="767.2,529.5 718.3,557.6 718.3,556.2 767.2,528 	"/>
	<polygon class="st12" points="767.2,509.2 718.3,537.4 718.3,536 767.2,507.8 	"/>
	<polygon class="st12" points="767.2,489 718.3,517.2 718.3,515.8 767.2,487.6 	"/>
	<polygon class="st12" points="767.2,468.8 718.3,497 718.3,495.6 767.2,467.4 	"/>
	<polygon class="st12" points="767.2,448.6 718.3,476.7 718.3,475.3 767.2,447.1 	"/>
	<polygon class="st12" points="767.2,428.3 718.3,456.5 718.3,455.1 767.2,426.9 	"/>
	<path class="st12" d="M762.6,417.5"/>
	<path class="st12" d="M723,440.3"/>
	<polygon class="st12" points="742.3,563.2 742.3,419 743.3,418.3 743.4,562.6 	"/>
	<polygon class="st12" points="730.8,569.8 730.8,429.1 731.9,428.5 731.9,569.2 	"/>
	<polygon class="st12" points="753.8,556.6 753.7,416 754.8,415.4 754.8,556 	"/>
	<path class="st12" d="M713.5,592.8l0-136.9l0-3.1l1.3-3.3c6.9-17.5,18.3-32.2,30.6-39.3l0,0c6.9-4,13.5-5.2,19.2-3.9l6.9,3
		c-6.6-3.6-15-2.9-23.8,2.2l0,0c-12.3,7.1-23.7,21.8-30.6,39.3l-1.3,3.3l0,3.1l0,136.9L713.5,592.8z"/>
	<polygon class="st12" points="723.3,579.8 772.1,551.6 767.2,548.8 718.3,577 	"/>
	<polygon class="st12" points="772.1,551.6 767.2,548.8 767.1,421.8 772.1,424.6 	"/>
	<path class="st12" d="M767.1,421.8c-0.9-1.2-1.9-2.2-2.9-3.1c3.1,1,5.8,3,7.9,5.9L767.1,421.8z"/>
	<path class="st12" d="M767.1,421.8c-0.9-1.2-1.9-2.3-2.9-3.2"/>
	<path class="st12" d="M747.7,421.5c10.1-5.9,19.1-4.2,24.4,3.1l0,127l-48.8,28.2l0-127C728.6,439.4,737.5,427.3,747.7,421.5
		 M747.7,411.5c-12.3,7.1-23.7,21.8-30.6,39.3l-1.3,3.3l0,3.1l0,136.9l63.8-36.8l0-137l0-3.1l-1.3-1.8
		C771.4,405.9,759.9,404.5,747.7,411.5L747.7,411.5z"/>
	<polygon class="st12" points="462,470.7 499.5,432.9 499.5,598.3 462,619.7 	"/>
	<polygon class="st14" points="462,470.7 499.5,432.9 499.5,555.9 462,505.3 	"/>
	<polygon class="st12" points="457.1,467.8 462,470.7 462,619.7 457.1,616.8 	"/>
	<polygon class="st15" points="457.1,467.8 462,470.7 462,505.3 457.1,502.3 	"/>
	<polygon class="st12" points="640.4,650.7 640.4,418.7 653.2,411.2 653.2,643.3 	"/>
	<polygon class="st12" points="640.4,650.7 640.4,418.7 627.6,411.2 627.6,643.3 	"/>
	<g>
		<g>
			<path class="st10" d="M508.7,462.5l36.5,21.2v110.7l-36.5-21.1V462.5 M507.7,460.8V574l38.5,22.2V483.2L507.7,460.8L507.7,460.8z
				"/>
		</g>
	</g>
	<polygon class="st12" points="448,539.6 448,307.6 435.2,300.2 435.2,532.3 	"/>
	<polygon class="st12" points="827.3,542.8 827.3,310.8 840,303.3 840,535.4 	"/>
	<polygon class="st12" points="846.4,524.1 846.4,292 840,303.3 840,535.4 	"/>
	<polygon class="st12" points="893.6,439.5 893.6,207.4 887.2,218.7 887.2,450.8 	"/>
	<polygon class="st15" points="840,303.4 840,357.3 640.4,472.6 640.4,418.7 	"/>
	<polygon class="st15" points="840,303.4 840,357.3 893.6,261.3 893.6,207.4 	"/>
	<polygon class="st16" points="435.2,300.2 435.2,354.2 640.4,472.6 640.4,418.7 	"/>
	<polygon class="st12" points="503.9,245.8 606.5,438 401.3,319.6 	"/>
	<polygon class="st12" points="401.3,319.6 606.5,438 593.4,413.3 414.9,310.2 	"/>
	<polygon class="st15" points="499.5,432.9 499.5,555.9 559.9,590.8 559.9,467.8 	"/>
	<polygon class="st12" points="462,610.5 462,619.7 522.3,654.4 522.3,645.2 	"/>
	<polygon class="st12" points="472.6,604.5 462,610.5 522.3,645.2 532.9,639.2 	"/>
	<polygon class="st12" points="472.6,594.5 472.6,604.5 532.9,639.2 532.9,629.1 	"/>
	<polygon class="st12" points="483.1,588.5 472.6,594.5 532.9,629.1 543.4,623.2 	"/>
	<polygon class="st12" points="483.1,578.5 483.1,588.5 543.4,623.2 543.4,613.1 	"/>
	<polygon class="st12" points="499.6,569.2 483.1,578.5 543.4,613.1 559.9,603.9 	"/>
	<polygon class="st12" points="527.3,508.3 564.7,470.5 564.7,635.9 527.3,657.3 	"/>
	<polygon class="st15" points="527.3,508.3 564.7,470.5 577.6,488.1 564.7,509 527.3,542.9 	"/>
	<polygon class="st12" points="522.3,505.4 527.3,508.3 527.3,657.3 522.3,654.4 	"/>
	<polygon class="st15" points="522.3,505.4 527.3,508.3 527.3,542.9 522.3,539.9 	"/>
	<polygon class="st12" points="441.1,474.3 488.6,426.3 577.6,477.8 530.1,525.7 	"/>
	<polygon class="st12" points="530.1,525.7 577.6,477.8 577.6,488.1 533.4,532.7 	"/>
	<polygon class="st12" points="530.1,525.7 441.1,474.3 444.4,481.2 533.4,532.7 	"/>
	<line class="st12" x1="537.5" y1="518.7" x2="448.4" y2="467.3"/>
	<line class="st12" x1="546.3" y1="509.8" x2="457.2" y2="458.4"/>
	<line class="st12" x1="555.2" y1="500.9" x2="466.1" y2="449.5"/>
	<line class="st12" x1="564.1" y1="492" x2="475" y2="440.6"/>
	<line class="st12" x1="572.8" y1="483.1" x2="483.7" y2="431.7"/>
	<polygon class="st17" points="564.7,509 577.6,488.1 577.6,477.8 601.8,507.8 601.8,657.3 527.3,657.3 564.7,635.9 	"/>
	<polygon class="st16" points="503.8,322.8 502.8,319.6 492.3,313.5 492.3,300.8 491.3,297.6 488.3,295.8 488.3,313.9 475.6,306.5 
		475.6,310.7 476.8,312.6 487,318.5 487,350.2 488.3,352.2 492.3,354.5 492.3,321.6 503.8,328.2 	"/>
	<g>
		<polygon class="st12" points="491.3,318.3 490.1,319 490.1,352 491.3,351.3 		"/>
		<polygon class="st12" points="491.3,297.6 490.1,298.3 490.1,313.6 491.3,312.9 		"/>
		<polygon class="st12" points="502.8,319.6 501.6,320.3 490.1,313.6 491.3,312.9 		"/>
		<polygon class="st12" points="502.8,325 501.6,325.7 501.6,320.3 502.8,319.6 		"/>
		<polygon class="st12" points="475.8,304 474.6,304.7 486.1,311.3 487.3,310.6 		"/>
		<polygon class="st12" points="487.3,295.3 486.1,296 490.1,298.3 491.3,297.6 		"/>
		<polygon class="st12" points="501.6,320.3 490.1,313.6 490.1,298.3 486.1,296 486.1,311.3 474.6,304.7 474.6,310 486.1,316.7 
			486.1,349.6 490.1,352 490.1,319 501.6,325.7 		"/>
		<polygon class="st15" points="490.1,313.6 491.3,312.9 492.3,313.5 		"/>
	</g>
	<polygon class="st15" points="503.9,291.2 436.3,339.8 401.3,319.6 503.9,245.8 522.1,280 	"/>
	<polygon class="st12" points="857,332.8 737.5,111.1 484.6,256.7 604.1,478.3 	"/>
	<polygon class="st12" points="737.5,111.1 857,332.8 923.7,209.8 	"/>
	<line class="st12" x1="593.5" y1="458.4" x2="846.3" y2="312.9"/>
	<line class="st12" x1="582" y1="437.2" x2="834.9" y2="291.7"/>
	<line class="st12" x1="570.8" y1="416.2" x2="823.6" y2="270.6"/>
	<line class="st12" x1="559.1" y1="394.7" x2="811.9" y2="249.2"/>
	<line class="st12" x1="547.5" y1="373.5" x2="800.3" y2="227.9"/>
	<line class="st12" x1="536.3" y1="352.4" x2="789.1" y2="206.8"/>
	<line class="st12" x1="524.6" y1="330.8" x2="777.5" y2="185.2"/>
	<line class="st12" x1="513.5" y1="310.2" x2="766.3" y2="164.6"/>
	<line class="st12" x1="502" y1="288.6" x2="754.9" y2="143.1"/>
	<line class="st12" x1="490.9" y1="268" x2="743.7" y2="122.5"/>
	<line class="st12" x1="846.3" y1="312.9" x2="907" y2="201"/>
	<line class="st12" x1="834.9" y1="291.7" x2="889.2" y2="191.5"/>
	<line class="st12" x1="823.6" y1="270.6" x2="871.5" y2="182.2"/>
	<line class="st12" x1="811.9" y1="249.2" x2="853.5" y2="172.6"/>
	<line class="st12" x1="800.3" y1="227.9" x2="835.5" y2="163.1"/>
	<line class="st12" x1="789.1" y1="206.8" x2="817.9" y2="153.7"/>
	<line class="st12" x1="777.5" y1="185.2" x2="799.7" y2="144.1"/>
	<line class="st12" x1="766.3" y1="164.6" x2="782.4" y2="135"/>
	<line class="st12" x1="754.9" y1="143.1" x2="764.4" y2="125.4"/>
	<line class="st12" x1="743.7" y1="122.5" x2="747.1" y2="116.2"/>
	<polygon class="st12" points="737.5,111.1 857,332.8 853.5,334.7 734,113 	"/>
	<polygon class="st12" points="857,332.8 858.7,329.4 743.9,117 922.2,212.2 923.7,209.8 737.5,111.1 	"/>
	<path class="st12" d="M740,103.7c0,0,0.2,1.5-2.8,1.5c-2.7,0-2.4-1.6-2.4-1.6v8.7c0,0-0.3,1.6,2.4,1.6c3,0,2.8-1.5,2.8-1.5V103.7z"
		/>
	<path class="st12" d="M491.4,249.9c0,0,0.2,1.5-2.8,1.5c-2.7,0-2.4-1.6-2.4-1.6v5c0,0-0.3,1.6,2.4,1.6c3,0,2.8-1.5,2.8-1.5V249.9z"
		/>
	<path class="st12" d="M490,223.6l4.1,25.6c0,0,0.5,2.6-5.7,2.6c-5.6,0-5-2.9-5-2.9l3.5-25.4H490z"/>
	<path class="st12" d="M487.1,224.6c0,0,0.1,0.7,0.6,1.1l-1.6,24.8c0,0-1.4-0.2-2.1-1.8L487.1,224.6z"/>
	<path class="st12" d="M486.9,223.6c-1.9-0.7-3.2-2.4-3.2-4.5c0-2.6,2.1-4.8,4.8-4.8c2.6,0,4.8,2.1,4.8,4.8c0,2.1-1.3,3.8-3.2,4.5
		C490,223.6,488.2,224.3,486.9,223.6z"/>
	<path class="st12" d="M487.6,223.1c1,0.5,2.4,0,2.4,0c1.4-0.5,2.5-1.8,2.5-3.4C492.5,219.6,491,222.8,487.6,223.1z"/>
	<path class="st12" d="M485.5,217.4c0,1.1,0.9,2,2,2c1.1,0,2-0.9,2-2c0-1.1-0.9-2-2-2C486.4,215.4,485.5,216.3,485.5,217.4z"/>
	<path class="st12" d="M492.2,250.3c1-0.3,1.3-1.3,1.3-1.3l-4-25.2l-0.5,0.1L492.2,250.3z"/>
	<polygon class="st12" points="483.3,254.3 378.4,329.7 386.6,349.8 484.6,280.2 594.2,484.8 604.1,478.3 	"/>
	<polygon class="st12" points="486.8,252.3 607.6,476.4 604.1,478.3 483.3,254.3 	"/>
	<g>
		<polygon class="st12" points="740.8,64.7 739,65.8 739,114.4 740.8,113.4 		"/>
		<polygon class="st12" points="740.8,34.1 739,35.1 739,57.8 740.8,56.8 		"/>
		<polygon class="st12" points="757.9,66.6 756.1,67.6 739,57.8 740.8,56.8 		"/>
		<polygon class="st12" points="757.9,74.5 756.1,75.6 756.1,67.6 757.9,66.6 		"/>
		<polygon class="st12" points="717.9,43.5 716.1,44.5 733.1,54.3 734.9,53.3 		"/>
		<polygon class="st12" points="734.9,30.6 733.1,31.7 739,35.1 740.8,34.1 		"/>
		<polygon class="st12" points="756.1,67.6 739,57.8 739,35.1 733.1,31.7 733.1,54.3 716.1,44.5 716.1,52.5 733.1,62.3 733.1,111 
			739,114.4 739,65.8 756.1,75.6 		"/>
		<polygon class="st15" points="739,57.8 740.8,56.8 742.3,57.6 		"/>
	</g>
</g>
<g id="Layer_8">
	<path class="st18" d="M923.7,209.8l-182.8-96.9V66.8l15.2,8.8l1.8-1v-8l-15.6-9h0l-1.4-0.8V34.1l-6-3.4l-1.8,1v20.6l-15.2-8.8
		l-1.8,1v8l17,9.8V111l1.7,1v0.2c0,0,0,0.2,0,0.4L734,113l0,0L491.4,252.8v-1.2c3.1-0.7,2.8-2.4,2.8-2.4l-4.1-25.6
		c1.9-0.7,3.2-2.4,3.2-4.5c0-2.6-2.1-4.8-4.8-4.8c-2.6,0-4.8,2.1-4.8,4.8c0,2.1,1.3,3.8,3.2,4.5l-3.5,25.4c0,0-0.4,2,2.8,2.7v1.1
		l-2.9,1.6l-104.9,75.4l8.2,20.1l30.1-21.3l18.6,10.7v15v178.1v28.9l21.9,12.6v43l4.9,2.9l60.3,34.7l4.9,2.9l37.4-21.4l75.7,43.7
		L840,564.3l53.6-96v-28.9V265.2L923.7,209.8z"/>
</g>
</svg>
